<svg width="28" height="28" viewBox="0 0 28 28" fill="none" xmlns="http://www.w3.org/2000/svg">
<g clip-path="url(#clip0_1863_8106)">
<path d="M3.14996 3.78503C2.66871 3.78503 2.27278 4.07378 2.08246 4.55503L0.122464 9.57753C-0.934098 12.2835 4.56746 15.0725 9.36246 16.945L10.3075 17.33L3.81496 21.705C3.39278 21.9566 2.84153 22.3503 2.88746 22.9125C2.91153 23.21 3.0909 23.4572 3.39496 23.5775L4.39246 23.9625C4.65278 24.0632 4.98965 24.12 5.38996 24.12C5.97184 24.12 6.59965 24.0128 7.12246 23.8225L17.5 20.0775C22.5947 21.961 25.5609 22.8425 26.81 22.8425C27.3678 22.8425 27.72 22.661 27.86 22.3C28.4003 20.9175 27.4181 17.6822 23.555 16.175C23.555 16.175 6.20153 9.40035 5.66996 9.19253C5.47746 9.11816 5.42715 9.01972 5.33746 8.38753C5.25434 7.82097 4.96559 5.93097 4.89996 5.37753C4.79934 4.57691 3.93309 3.78503 3.14996 3.78503ZM10.4825 4.71253C10.22 4.69503 9.97278 4.80222 9.81746 5.01003C9.59215 5.3141 9.57465 5.77566 9.76496 6.41003L10.605 9.91003C12.3243 10.5816 14.3434 11.3778 16.275 12.1325L13.65 7.12753C13.265 6.38816 12.4534 5.45191 11.725 5.16753L10.745 4.78253C10.6575 4.74753 10.57 4.7191 10.4825 4.71253ZM18.4975 21.635C18.4865 21.716 18.48 21.7969 18.48 21.88C18.48 22.9607 19.3593 23.84 20.44 23.84C21.1531 23.84 21.7765 23.4485 22.12 22.8775C21.0853 22.545 19.8865 22.136 18.4975 21.635Z" fill="#0080FF"/>
</g>
<defs>
<clipPath id="clip0_1863_8106">
<rect width="28" height="28" fill="white"/>
</clipPath>
</defs>
</svg>
