<svg width="25" height="25" viewBox="0 0 25 25" fill="none" xmlns="http://www.w3.org/2000/svg">
<path d="M23.9045 1.38481C23.6482 1.0292 23.2373 0.833374 22.7475 0.833374C22.5175 0.833374 22.271 0.876714 22.0148 0.962163L2.17107 7.57671C1.48565 7.80516 1.01324 8.27206 0.874926 8.85776C0.736613 9.44351 0.950304 10.0725 1.46122 10.5836C1.51117 10.6336 1.56859 10.6755 1.63139 10.7079L9.98586 15.0144L14.2926 23.3689C14.3249 23.4317 14.3668 23.4891 14.4168 23.539C14.8273 23.9496 15.3009 24.1667 15.7862 24.1668H15.7863C16.5213 24.1668 17.1488 23.6542 17.4236 22.8292L24.0383 2.98555C24.2463 2.36148 24.1987 1.793 23.9045 1.38481ZM2.20552 9.17199C2.23168 9.06111 2.38416 8.94686 2.60337 8.87376L21.438 2.59554L10.363 13.6705L2.36311 9.54687C2.24262 9.40605 2.18305 9.26714 2.20552 9.17199ZM16.1266 22.3969C16.0617 22.5916 15.9383 22.7995 15.7863 22.7995C15.6943 22.7995 15.5738 22.74 15.4535 22.6371L11.3297 14.6373L22.405 3.56201L16.1266 22.3969Z" fill="#78828A"/>
</svg>
