<svg width="14" height="15" viewBox="0 0 14 15" fill="none" xmlns="http://www.w3.org/2000/svg">
<path d="M13.6895 0.791902C13.2753 0.377795 12.6064 0.377795 12.1923 0.791902L7.00003 5.97355L1.80774 0.781283C1.39363 0.367176 0.724687 0.367176 0.31058 0.781283C-0.103527 1.19539 -0.103527 1.86433 0.31058 2.27844L5.50288 7.4707L0.31058 12.663C-0.103527 13.0771 -0.103527 13.746 0.31058 14.1601C0.724687 14.5742 1.39363 14.5742 1.80774 14.1601L7.00003 8.96786L12.1923 14.1601C12.6064 14.5742 13.2753 14.5742 13.6895 14.1601C14.1036 13.746 14.1036 13.0771 13.6895 12.663L8.49719 7.4707L13.6895 2.27844C14.0929 1.87495 14.0929 1.19539 13.6895 0.791902Z" fill="#B7B7B7"/>
</svg>
