<svg width="20" height="21" viewBox="0 0 20 21" fill="none" xmlns="http://www.w3.org/2000/svg">
<path d="M19.7753 0.972656C19.5556 0.667852 19.2034 0.5 18.7836 0.5C18.5865 0.5 18.3751 0.537148 18.1556 0.610391L1.14665 6.28C0.559145 6.47582 0.154223 6.87602 0.0356686 7.37805C-0.0828861 7.88012 0.100278 8.41926 0.538208 8.8573C0.58102 8.90016 0.630239 8.93609 0.684067 8.96387L7.84504 12.6552L11.5365 19.8162C11.5642 19.87 11.6002 19.9192 11.643 19.962C11.9949 20.3139 12.4007 20.5 12.8168 20.5H12.8169C13.4469 20.5 13.9847 20.0607 14.2203 19.3536L19.89 2.34473C20.0682 1.8098 20.0275 1.32254 19.7753 0.972656ZM1.17618 7.64738C1.1986 7.55234 1.3293 7.45441 1.51719 7.39176L17.6611 2.01043L8.16829 11.5033L1.31125 7.96871C1.20797 7.84801 1.15692 7.72895 1.17618 7.64738ZM13.1085 18.983C13.0529 19.1499 12.9471 19.3281 12.8169 19.3281C12.738 19.3281 12.6347 19.2771 12.5316 19.1889L8.99692 12.3319L18.49 2.83883L13.1085 18.983Z" fill="#111111"/>
</svg>
