<svg width="31" height="20" viewBox="0 0 31 20" fill="none" xmlns="http://www.w3.org/2000/svg">
<path d="M2.8904 19.7791L20.8904 19.9983C21.6104 20.007 22.3338 19.7355 22.8905 19.1916L29.9757 12.2687C31.0891 11.1808 31.1109 9.37877 30.0243 8.26411L23.1095 1.17079C22.5661 0.613462 21.8496 0.324371 21.1096 0.31536L3.10953 0.096167C2.38953 0.0874 1.66612 0.358955 1.10943 0.902891C0.552742 1.44683 0.263985 2.16425 0.265105 2.89521L0.0948196 16.9114C0.0759401 17.6421 0.347183 18.3663 0.890493 18.9237C1.4338 19.481 2.1704 19.7703 2.8904 19.7791ZM23.5182 8.68553C24.3583 7.86468 25.6983 7.881 26.5182 8.72207C27.3381 9.56313 27.3218 10.9047 26.4817 11.7255C25.6417 12.5464 24.3017 12.5301 23.4817 11.689C22.6618 10.8479 22.6781 9.50638 23.5182 8.68553Z" fill="#FFBB00"/>
</svg>
