<svg width="65" height="42" viewBox="0 0 65 42" fill="none" xmlns="http://www.w3.org/2000/svg">
<path d="M6.13781 41.6103L43.9593 41.5956C45.4721 41.595 46.9849 41.0068 48.1404 39.8521L62.8461 25.1557C65.157 22.8463 65.1563 19.0687 62.8446 16.7611L48.1336 2.07623C46.9778 0.922414 45.4648 0.335379 43.9099 0.335983L6.08844 0.350703C4.57558 0.351294 3.06282 0.939503 1.90737 2.09421C0.751924 3.24892 0.163857 4.76019 0.185142 6.2922L0.190374 35.6734C0.169638 37.2054 0.758238 38.7162 1.9141 39.8701C3.06996 41.0239 4.62495 41.6109 6.13781 41.6103ZM49.187 17.8158C50.9307 16.0732 53.7463 16.0721 55.4906 17.8133C57.2349 19.5545 57.2354 22.3667 55.4917 24.1093C53.748 25.8518 50.9324 25.8529 49.1881 24.1117C47.4438 22.3705 47.4433 19.5583 49.187 17.8158Z" fill="#F54336"/>
</svg>
