<svg width="12" height="20" viewBox="0 0 12 20" fill="none" xmlns="http://www.w3.org/2000/svg">
<path d="M3.85935 11.2916C3.78085 11.2916 2.1341 11.2921 1.3746 11.2914C0.983601 11.2911 0.844101 11.1506 0.844101 10.7571C0.843601 9.7464 0.843351 8.73565 0.844101 7.7249C0.844351 7.3364 0.991851 7.18815 1.37785 7.1879C2.13735 7.1874 3.7751 7.18765 3.85935 7.18765C3.85935 7.1184 3.8591 5.65915 3.85935 4.98715C3.85985 3.99365 4.0371 3.04265 4.54185 2.1719C5.0586 1.28065 5.8106 0.670154 6.77435 0.317154C7.3916 0.0909041 8.03235 0.000654262 8.68734 0.000154262C9.50684 -0.000345738 10.3263 0.000404254 11.1461 0.00190425C11.4983 0.00240425 11.6546 0.158154 11.6553 0.512904C11.6568 1.46365 11.6568 2.4144 11.6553 3.3649C11.6548 3.7234 11.5051 3.8674 11.1448 3.8714C10.4731 3.87865 9.80084 3.87415 9.12984 3.90115C8.45209 3.90115 8.09559 4.23215 8.09559 4.93365C8.07935 5.67565 8.08884 6.4184 8.08884 7.1874C8.15234 7.1874 10.0811 7.18715 10.9826 7.1874C11.3921 7.1874 11.5321 7.32815 11.5321 7.7399C11.5321 8.74515 11.5318 9.75065 11.5311 10.7559C11.5308 11.1616 11.3993 11.2911 10.9873 11.2914C10.0858 11.2919 8.16459 11.2916 8.08059 11.2916V19.4279C8.08059 19.8616 7.9441 19.9999 7.5161 19.9999C6.4726 19.9999 5.42885 20.0001 4.38535 19.9999C4.0071 19.9999 3.8596 19.8529 3.8596 19.4746C3.85935 16.8249 3.85935 11.3846 3.85935 11.2916Z" fill="#1976D2"/>
</svg>
