<svg width="17" height="17" viewBox="0 0 17 17" fill="none" xmlns="http://www.w3.org/2000/svg">
<path d="M1.41721 3.50388H9.28108C9.52668 4.63828 10.5369 5.49108 11.7437 5.49108C12.9505 5.49108 13.9608 4.63828 14.2064 3.50388H15.7833C16.0779 3.50388 16.3167 3.26508 16.3167 2.97055C16.3167 2.67601 16.0779 2.43721 15.7833 2.43721H14.2064C13.9608 1.30281 12.9505 0.450012 11.7437 0.450012C10.5369 0.450012 9.52668 1.30281 9.28108 2.43721H1.41721C1.12268 2.43721 0.883881 2.67601 0.883881 2.97055C0.883881 3.26508 1.12268 3.50388 1.41721 3.50388ZM11.7437 1.51668C12.5455 1.51668 13.1976 2.16895 13.1976 2.97055C13.1976 3.77215 12.5453 4.42441 11.7437 4.42441C10.9421 4.42441 10.2899 3.77215 10.2899 2.97055C10.2899 2.16895 10.942 1.51668 11.7437 1.51668Z" fill="#0080FF"/>
<path d="M15.7833 7.9167H7.91948C7.67388 6.7823 6.66361 5.9295 5.45681 5.9295C4.25001 5.9295 3.23975 6.7823 2.99415 7.9167H1.41721C1.12268 7.9167 0.883881 8.1555 0.883881 8.45004C0.883881 8.74457 1.12268 8.98337 1.41721 8.98337H2.99415C3.23975 10.1178 4.25001 10.9706 5.45681 10.9706C6.66361 10.9706 7.67388 10.1178 7.91948 8.98337H15.7833C16.0779 8.98337 16.3167 8.74457 16.3167 8.45004C16.3167 8.1555 16.0779 7.9167 15.7833 7.9167ZM5.45681 9.9039C4.65508 9.9039 4.00295 9.25164 4.00295 8.45004C4.00295 7.64844 4.65521 6.99617 5.45681 6.99617C6.25841 6.99617 6.91068 7.6483 6.91068 8.45004C6.91068 9.25177 6.25855 9.9039 5.45681 9.9039Z" fill="#0080FF"/>
<path d="M15.7833 13.3961H14.2064C13.9608 12.2617 12.9505 11.4089 11.7437 11.4089C10.5369 11.4089 9.52668 12.2617 9.28108 13.3961H1.41721C1.12268 13.3961 0.883881 13.6349 0.883881 13.9295C0.883881 14.224 1.12268 14.4628 1.41721 14.4628H9.28108C9.52668 15.5972 10.5369 16.45 11.7437 16.45C12.9505 16.45 13.9608 15.5972 14.2064 14.4628H15.7833C16.0779 14.4628 16.3167 14.224 16.3167 13.9295C16.3167 13.6349 16.0779 13.3961 15.7833 13.3961ZM11.7437 15.3833C10.942 15.3833 10.2899 14.7311 10.2899 13.9295C10.2899 13.1279 10.9421 12.4756 11.7437 12.4756C12.5453 12.4756 13.1976 13.1279 13.1976 13.9295C13.1976 14.7311 12.5455 15.3833 11.7437 15.3833Z" fill="#0080FF"/>
</svg>
