<svg width="20" height="21" viewBox="0 0 20 21" fill="none" xmlns="http://www.w3.org/2000/svg">
<path d="M13.9997 10.5003C13.9997 8.2912 12.2088 6.50033 9.99974 6.50033C7.79068 6.50033 6 8.2912 6 10.5003C6 12.7093 7.79068 14.5 9.99974 14.5C12.2088 14.5 13.9997 12.7093 13.9997 10.5003Z" fill="#0080FF"/>
<path d="M19.4 11.1002H18.0627C17.762 15.0941 14.5879 18.2688 10.594 18.5698V19.9C10.594 20.2314 10.3252 20.5 9.99396 20.5C9.66255 20.5 9.39395 20.2314 9.39395 19.9V18.5698C5.39988 18.2688 2.22554 15.0941 1.92489 11.1002H0.600007C0.268603 11.1002 0 10.8314 0 10.5002C0 10.1688 0.268603 9.90018 0.600007 9.90018H1.92489C2.22554 5.90629 5.39988 2.73158 9.39377 2.43057V1.10001C9.39377 0.768602 9.66237 0.5 9.99378 0.5C10.325 0.5 10.5936 0.768602 10.5936 1.10001V2.43057C14.5877 2.7314 17.762 5.90611 18.0627 9.90018H19.4C19.7314 9.90018 20 10.1688 20 10.5002C20 10.8314 19.7314 11.1002 19.4 11.1002ZM9.99378 3.60056C6.18335 3.60074 3.09451 6.68994 3.09451 10.5004C3.0947 14.311 6.1839 17.3998 9.99432 17.3998C13.8049 17.3998 16.894 14.3106 16.894 10.5002C16.8894 6.69123 13.8027 3.60477 9.99378 3.60056Z" fill="#0080FF"/>
</svg>
