<svg width="22" height="20" viewBox="0 0 22 20" fill="none" xmlns="http://www.w3.org/2000/svg">
<path d="M11 3.00053L10.584 3.27789C10.6767 3.41698 10.8328 3.50053 11 3.50053C11.1672 3.50053 11.3233 3.41698 11.416 3.27789L11 3.00053ZM11 18.4999C11.018 18.4999 10.9852 18.5007 10.8741 18.4655C10.7755 18.4342 10.645 18.3844 10.4846 18.3138C10.1645 18.1729 9.74843 17.9599 9.26883 17.6782C8.31004 17.1151 7.11869 16.2906 5.95839 15.2525C3.61985 13.1602 1.5 10.2857 1.5 7.00037H0.5C0.5 10.7148 2.88015 13.8402 5.29161 15.9977C6.50632 17.0845 7.75247 17.9474 8.76243 18.5405C9.26721 18.8369 9.71834 19.0692 10.0818 19.2291C10.2632 19.3089 10.4286 19.3733 10.5717 19.4187C10.7023 19.4601 10.857 19.4999 11 19.4999V18.4999ZM20.5 7.00037C20.5 10.2857 18.3802 13.1602 16.0416 15.2525C14.8813 16.2906 13.69 17.1151 12.7312 17.6782C12.2516 17.9599 11.8355 18.1729 11.5154 18.3138C11.355 18.3844 11.2245 18.4342 11.1259 18.4655C11.0148 18.5007 10.982 18.4999 11 18.4999V19.4999C11.143 19.4999 11.2977 19.4601 11.4283 19.4187C11.5714 19.3733 11.7368 19.3089 11.9182 19.2291C12.2817 19.0692 12.7328 18.8369 13.2376 18.5405C14.2475 17.9474 15.4937 17.0845 16.7084 15.9977C19.1199 13.8402 21.5 10.7148 21.5 7.00037H20.5ZM1.5 7.00037C1.5 3.80321 4.24881 1.50059 7 1.50059V0.500587C3.75119 0.500587 0.5 3.1978 0.5 7.00037H1.5ZM7 1.50059C8.36028 1.50059 9.70287 1.95627 10.584 3.27789L11.416 2.72317C10.2971 1.04491 8.58782 0.500587 7 0.500587V1.50059ZM11.416 3.27789C12.3002 1.95173 13.6193 1.48066 14.9928 1.50053L15.0072 0.500638C13.3807 0.477104 11.6998 1.04946 10.584 2.72317L11.416 3.27789ZM14.9928 1.50053C17.7561 1.54052 20.5 3.80904 20.5 7.00037H21.5C21.5 3.19197 18.2439 0.54747 15.0072 0.500638L14.9928 1.50053Z" fill="#78828A"/>
</svg>
