<svg width="6" height="6" viewBox="0 0 6 6" fill="none" xmlns="http://www.w3.org/2000/svg">
<path d="M4.53844 2.33855H3.3732V1.17332C3.3732 1.0188 3.31182 0.870605 3.20256 0.761343C3.0933 0.652081 2.94511 0.590698 2.79059 0.590698C2.63607 0.590698 2.48787 0.652081 2.37861 0.761343C2.26935 0.870605 2.20797 1.0188 2.20797 1.17332V2.33855H1.04273C0.888212 2.33855 0.74002 2.39994 0.630758 2.5092C0.521496 2.61846 0.460114 2.76665 0.460114 2.92117C0.460114 3.07569 0.521496 3.22388 0.630758 3.33314C0.74002 3.44241 0.888212 3.50379 1.04273 3.50379H2.20797V4.66902C2.20797 4.82354 2.26935 4.97174 2.37861 5.081C2.48787 5.19026 2.63607 5.25164 2.79059 5.25164C2.94511 5.25164 3.0933 5.19026 3.20256 5.081C3.31182 4.97174 3.3732 4.82354 3.3732 4.66902V3.50379H4.53844C4.69296 3.50379 4.84115 3.44241 4.95041 3.33314C5.05968 3.22388 5.12106 3.07569 5.12106 2.92117C5.12106 2.76665 5.05968 2.61846 4.95041 2.5092C4.84115 2.39994 4.69296 2.33855 4.53844 2.33855Z" fill="white"/>
</svg>
