<svg width="28" height="28" viewBox="0 0 28 28" fill="none" xmlns="http://www.w3.org/2000/svg">
<g clip-path="url(#clip0_1863_8104)">
<path d="M14.0001 0.21875C13.6282 0.21875 13.3438 0.503125 13.3438 0.875V6.125H11.1563C10.1938 6.125 9.40631 6.9125 9.40631 7.875V11.1562H8.09381C7.13131 11.1562 6.34381 11.9438 6.34381 12.9062V19.4252L5.00952 19.9498C4.6814 20.0811 4.52802 20.4313 4.63739 20.7595L5.79694 24.2595C5.90631 24.6095 6.27836 24.7845 6.62836 24.6752C6.97836 24.5658 7.15302 24.1938 7.04364 23.8438L6.05927 20.9124L15.5313 17.1501V26.3812C15.1376 26.2718 14.7656 26.0533 14.4594 25.7689C14.2187 25.5283 13.7814 25.5283 13.5408 25.7689C13.0814 26.2283 12.4688 26.4905 11.8126 26.4905C11.1563 26.4905 10.5437 26.2283 10.0844 25.7689C9.84373 25.5283 9.4064 25.5283 9.16577 25.7689C8.7064 26.2283 8.09381 26.4905 7.43756 26.4905C6.78131 26.4905 6.16873 26.2283 5.70935 25.7689C5.44685 25.5064 5.0314 25.5064 4.79077 25.7689C4.3314 26.2283 3.71881 26.4905 3.06256 26.4905C2.69069 26.4905 2.40631 26.7749 2.40631 27.1468C2.40631 27.5187 2.69069 27.803 3.06256 27.803C3.85006 27.803 4.61569 27.5626 5.25006 27.1032C5.88444 27.5626 6.65006 27.803 7.43756 27.803C8.22506 27.803 8.99069 27.5626 9.62506 27.1032C10.2594 27.5626 11.0251 27.803 11.8126 27.803C12.6001 27.803 13.3657 27.5626 14.0001 27.1032C14.6344 27.5626 15.4001 27.803 16.1876 27.803H24.9376H25.0469H25.0687C25.0906 27.803 25.1344 27.7812 25.1563 27.7812C25.1782 27.7812 25.178 27.7813 25.1999 27.7595C25.2218 27.7595 25.2439 27.7377 25.2439 27.7377C25.2658 27.7377 25.2656 27.7155 25.2875 27.7155C25.3094 27.7155 25.3315 27.6937 25.3315 27.6937L25.3533 27.6719C25.3751 27.65 25.3969 27.6502 25.3969 27.6283L25.4186 27.6061C25.4405 27.5842 25.4408 27.5625 25.4626 27.5625C25.4626 27.5625 25.4844 27.5408 25.4844 27.5189C25.5063 27.497 25.5061 27.4749 25.528 27.4749C25.5499 27.453 25.5501 27.4092 25.572 27.3873L27.7595 20.8248C27.847 20.4311 27.6937 20.0811 27.3656 19.9498L26.0313 19.4252V12.9062C26.0313 11.9438 25.2438 11.1562 24.2813 11.1562H22.9688V7.875C22.9688 6.9125 22.1813 6.125 21.2188 6.125H19.0313V0.875C19.0313 0.503125 18.7469 0.21875 18.3751 0.21875H14.0001ZM14.6563 1.53125H17.7188V6.125H14.6563V1.53125ZM11.1563 7.4375H21.2188C21.4594 7.4375 21.6563 7.63438 21.6563 7.875V11.1562H10.7188V7.875C10.7188 7.63438 10.9157 7.4375 11.1563 7.4375ZM16.8438 17.1501L26.3159 20.9342L24.4565 26.4688H16.8438V17.1501ZM11.7809 19.8716C11.62 19.8788 11.4681 19.9444 11.3533 20.0592C11.222 20.2123 11.1563 20.3875 11.1563 20.5625C11.1563 20.6063 11.1562 20.6499 11.1781 20.6937C11.1781 20.7374 11.2002 20.7811 11.2221 20.8248C11.2221 20.8467 11.2438 20.8905 11.2657 20.9342C11.2876 20.978 11.3095 20.9999 11.3533 21.0218C11.4845 21.153 11.6376 21.2188 11.8126 21.2188C11.8563 21.2188 11.9 21.2188 11.9437 21.197C11.9875 21.197 12.0311 21.1748 12.0749 21.153C12.1186 21.1311 12.1624 21.1095 12.1843 21.0876C12.228 21.0657 12.2499 21.0438 12.2936 21L12.3812 20.9124C12.4031 20.8687 12.4251 20.8468 12.447 20.803C12.4689 20.7593 12.4687 20.7156 12.4906 20.6719C12.4906 20.6281 12.5124 20.5845 12.5124 20.5407C12.5124 20.497 12.5125 20.4533 12.4906 20.4095C12.4906 20.3658 12.4689 20.3217 12.447 20.278C12.4251 20.2342 12.4031 20.2123 12.3812 20.1686C12.3594 20.1248 12.3374 20.1033 12.2936 20.0814C12.2718 20.0595 12.228 20.0157 12.1843 19.9938C12.1405 19.972 12.1186 19.9499 12.0749 19.928C12.0311 19.9062 11.9875 19.9063 11.9437 19.8845C11.889 19.8735 11.8346 19.8693 11.7809 19.8716ZM0.843445 25.5591C0.682458 25.5663 0.530615 25.6319 0.415771 25.7467C0.393896 25.7686 0.350061 25.8123 0.328186 25.8561C0.306311 25.8998 0.284265 25.9217 0.26239 25.9655C0.240515 26.0092 0.240686 26.0533 0.218811 26.097C0.218811 26.1408 0.197021 26.1845 0.197021 26.2282C0.197021 26.272 0.196936 26.3156 0.218811 26.3594C0.240686 26.3813 0.240515 26.425 0.26239 26.4688C0.284265 26.5125 0.306311 26.5562 0.328186 26.5781C0.350061 26.6219 0.372021 26.6437 0.415771 26.6875C0.437646 26.7094 0.481396 26.7532 0.525146 26.7751C0.568896 26.797 0.590771 26.8186 0.634521 26.8405C0.678271 26.8623 0.721936 26.8626 0.765686 26.8845C0.809436 26.8845 0.853101 26.9062 0.896851 26.9062C1.07185 26.9062 1.24677 26.8405 1.35614 26.7093C1.37802 26.6874 1.42185 26.6437 1.44373 26.5999C1.4656 26.5562 1.48765 26.5343 1.50952 26.4905C1.5314 26.4468 1.53123 26.4031 1.5531 26.3594C1.5531 26.3156 1.57489 26.272 1.57489 26.2282C1.57489 26.1845 1.57498 26.1408 1.5531 26.097C1.5531 26.0533 1.5314 26.0092 1.50952 25.9655C1.48765 25.9217 1.4656 25.878 1.44373 25.8561C1.42185 25.8123 1.39989 25.7905 1.35614 25.7467C1.33427 25.7248 1.29052 25.6814 1.24677 25.6595C1.20302 25.6377 1.18114 25.6156 1.13739 25.5938C1.09364 25.5938 1.04998 25.5938 1.00623 25.572C0.951538 25.561 0.897107 25.5567 0.843445 25.5591Z" fill="#0080FF"/>
</g>
<defs>
<clipPath id="clip0_1863_8104">
<rect width="28" height="28" fill="white"/>
</clipPath>
</defs>
</svg>
