<svg width="16" height="14" viewBox="0 0 16 14" fill="none" xmlns="http://www.w3.org/2000/svg">
<path d="M8 2.34178L7.58398 2.61914C7.67671 2.75824 7.83283 2.84178 8 2.84178C8.16717 2.84178 8.32328 2.75824 8.41602 2.61914L8 2.34178ZM8 12.5081C8.03887 12.5081 8.03728 12.5154 7.96642 12.4929C7.90815 12.4744 7.82698 12.4436 7.7235 12.3981C7.51734 12.3074 7.24582 12.1685 6.93028 11.9832C6.29961 11.6128 5.51452 11.0695 4.75005 10.3855C3.20318 9.00153 1.83333 7.12709 1.83333 5.00834H0.833328C0.833328 7.55613 2.46348 9.68155 4.08327 11.1308C4.90215 11.8634 5.74205 12.4451 6.42388 12.8455C6.7646 13.0456 7.0712 13.2036 7.32077 13.3134C7.44515 13.3681 7.56125 13.4135 7.66411 13.4461C7.75438 13.4747 7.8778 13.5081 8 13.5081V12.5081ZM14.1667 5.00834C14.1667 7.12709 12.7968 9.00153 11.2499 10.3855C10.4855 11.0695 9.70038 11.6128 9.06971 11.9832C8.75418 12.1685 8.48266 12.3074 8.2765 12.3981C8.17301 12.4436 8.09185 12.4744 8.03357 12.4929C7.96271 12.5154 7.96113 12.5081 8 12.5081V13.5081C8.1222 13.5081 8.24562 13.4747 8.33589 13.4461C8.43875 13.4135 8.55484 13.3681 8.67922 13.3134C8.92879 13.2036 9.2354 13.0456 9.57612 12.8455C10.2579 12.4451 11.0978 11.8634 11.9167 11.1308C13.5365 9.68155 15.1667 7.55613 15.1667 5.00834H14.1667ZM1.83333 5.00834C1.83333 2.9778 3.58214 1.50849 5.33333 1.50849V0.508488C3.08451 0.508488 0.833328 2.3724 0.833328 5.00834H1.83333ZM5.33333 1.50849C6.20226 1.50849 7.0362 1.79751 7.58398 2.61914L8.41602 2.06443C7.63046 0.886145 6.4298 0.508488 5.33333 0.508488V1.50849ZM8.41602 2.61914C8.96682 1.79296 9.78593 1.4958 10.6594 1.50844L10.6739 0.50854C9.5474 0.492241 8.3665 0.890688 7.58398 2.06443L8.41602 2.61914ZM10.6594 1.50844C12.4227 1.53395 14.1667 2.98363 14.1667 5.00834H15.1667C15.1667 2.36657 12.9106 0.540903 10.6739 0.50854L10.6594 1.50844Z" fill="#78828A"/>
</svg>
