<svg width="17" height="17" viewBox="0 0 17 17" fill="none" xmlns="http://www.w3.org/2000/svg">
<path d="M9.04108 11.1614C8.76972 10.9227 8.32835 10.9586 8.08968 11.23L5.57225 14.0679V2.7263C5.57225 2.35359 5.26492 2.04626 4.89221 2.04626C4.5195 2.04626 4.21218 2.35359 4.21218 2.7263V14.0679L1.69474 11.23C1.42338 10.9586 1.0147 10.9227 0.743342 11.1614C0.471982 11.4327 0.436019 11.8414 0.674685 12.1127L4.38218 16.2616C4.66008 16.6049 5.15049 16.5526 5.36954 16.2616L9.10974 12.1127C9.3484 11.8447 9.31571 11.4 9.04108 11.1614Z" fill="#0080FF"/>
<path d="M16.3253 4.90412L12.6505 0.755249C12.3236 0.42504 11.9149 0.405424 11.6305 0.755249L7.89029 4.90412C7.65163 5.17548 7.68759 5.61685 7.95895 5.85551C8.37743 6.18899 8.79919 5.96013 8.91034 5.78686L11.4278 2.94902V14.2579C11.4278 14.6306 11.7351 14.9379 12.1078 14.9379C12.4805 14.9379 12.7879 14.6665 12.7879 14.2906V2.95229L15.3053 5.79013C15.5767 6.06149 15.9853 6.09745 16.2567 5.85878C16.528 5.58415 16.564 5.17548 16.3253 4.90412Z" fill="#0080FF"/>
</svg>
