<svg width="28" height="28" viewBox="0 0 28 28" fill="none" xmlns="http://www.w3.org/2000/svg">
<path d="M0 4.47998V6.71998H10.08V7.83998H0V8.95998H8.4V10.08H0V11.2H6.72V12.32H0V13.44H5.04V14.56H0V20.72C0 21.6453 0.754687 22.4 1.68 22.4H3.9725C4.23938 23.9881 5.61969 25.2 7.28 25.2C8.94031 25.2 10.3206 23.9881 10.5875 22.4H17.36V6.10748C17.36 5.24123 16.5987 4.47998 15.7325 4.47998H0ZM18.48 8.39998V22.4H19.0925C19.3594 23.9859 20.7375 25.2 22.4 25.2C24.0625 25.2 25.4384 23.9859 25.7075 22.4H26.32C27.1841 22.4 28 21.584 28 20.72V15.3475C28 14.2494 27.2081 13.0747 27.1075 12.9325L24.7975 9.83498C24.3666 9.29686 23.4828 8.39998 22.4 8.39998H18.48ZM21.28 9.51998H22.4C22.8419 9.51998 23.4062 9.90936 23.905 10.535L26.1975 13.5975C26.3659 13.8403 26.7728 14.525 26.8625 15.12H21.84C21.5884 15.12 21.28 14.8115 21.28 14.56V9.51998ZM7.28 19.6C8.52469 19.6 9.52 20.5953 9.52 21.84C9.52 23.0847 8.52469 24.08 7.28 24.08C6.03531 24.08 5.04 23.0847 5.04 21.84C5.04 20.5953 6.03531 19.6 7.28 19.6ZM22.4 19.6C23.6359 19.6 24.64 20.604 24.64 21.84C24.64 23.0759 23.6359 24.08 22.4 24.08C21.1641 24.08 20.16 23.0759 20.16 21.84C20.16 20.604 21.1641 19.6 22.4 19.6Z" fill="#FFC10E"/>
</svg>
