<svg width="15" height="12" viewBox="0 0 15 12" fill="none" xmlns="http://www.w3.org/2000/svg">
<path d="M0 0.400024V1.60002H5.4V2.20002H0V2.80002H4.5V3.40002H0V4.00002H3.6V4.60002H0V5.20002H2.7V5.80002H0V9.10003C0 9.59573 0.404297 10 0.9 10H2.12813C2.27109 10.8508 3.01055 11.5 3.9 11.5C4.78945 11.5 5.52891 10.8508 5.67188 10H9.3V1.2719C9.3 0.807837 8.89219 0.400024 8.42813 0.400024H0ZM9.9 2.50002V10H10.2281C10.3711 10.8496 11.1094 11.5 12 11.5C12.8906 11.5 13.6277 10.8496 13.7719 10H14.1C14.5629 10 15 9.56292 15 9.10003V6.2219C15 5.63362 14.5758 5.00432 14.5219 4.92815L13.2844 3.26877C13.0535 2.98049 12.5801 2.50002 12 2.50002H9.9ZM11.4 3.10002H12C12.2367 3.10002 12.5391 3.30862 12.8063 3.64377L14.0344 5.2844C14.1246 5.41448 14.3426 5.78127 14.3906 6.10002H11.7C11.5652 6.10002 11.4 5.93479 11.4 5.80002V3.10002ZM3.9 8.50002C4.5668 8.50002 5.1 9.03323 5.1 9.70002C5.1 10.3668 4.5668 10.9 3.9 10.9C3.2332 10.9 2.7 10.3668 2.7 9.70002C2.7 9.03323 3.2332 8.50002 3.9 8.50002ZM12 8.50002C12.6621 8.50002 13.2 9.03792 13.2 9.70002C13.2 10.3621 12.6621 10.9 12 10.9C11.3379 10.9 10.8 10.3621 10.8 9.70002C10.8 9.03792 11.3379 8.50002 12 8.50002Z" fill="#FFC10E"/>
</svg>
