<svg width="16" height="15" viewBox="0 0 16 15" fill="none" xmlns="http://www.w3.org/2000/svg">
<path d="M15.0141 7.00753C14.875 7.00756 14.7406 7.05732 14.635 7.14782C14.5294 7.23832 14.4597 7.3636 14.4384 7.50101L14.2916 8.44077C14.2306 8.85377 14.0225 9.23087 13.7057 9.50274C13.3889 9.77462 12.9845 9.923 12.5671 9.92062H7.24194C6.82446 9.923 6.42014 9.77462 6.10331 9.50274C5.78648 9.23087 5.57843 8.85377 5.51739 8.44077L4.75999 3.51182H9.12962C9.28414 3.51182 9.43233 3.45044 9.5416 3.34118C9.65086 3.23191 9.71224 3.08372 9.71224 2.9292C9.71224 2.77468 9.65086 2.62649 9.5416 2.51723C9.43233 2.40797 9.28414 2.34659 9.12962 2.34659H4.53277L4.28341 1.34215C4.18923 0.96345 3.97103 0.627157 3.66357 0.386845C3.3561 0.146533 2.97706 0.0160258 2.58682 0.0161133H0.582618C0.428098 0.0161133 0.279907 0.0774962 0.170645 0.186758C0.0613829 0.29602 0 0.444211 0 0.598731C0 0.753251 0.0613829 0.901442 0.170645 1.0107C0.279907 1.11997 0.428098 1.18135 0.582618 1.18135H2.58682C2.71694 1.18145 2.84328 1.2251 2.9457 1.30535C3.04812 1.3856 3.12073 1.49783 3.15196 1.62414L4.36381 8.61556C4.42623 9.03585 4.58082 9.43714 4.81652 9.79069C5.05221 10.1442 5.36317 10.4413 5.72713 10.6605C5.51734 10.9046 5.36955 11.1958 5.29632 11.5092C5.22309 11.8226 5.22657 12.1491 5.30648 12.4608C5.42895 12.9423 5.72298 13.3625 6.13336 13.6426C6.54373 13.9226 7.04222 14.0432 7.53522 13.9817C8.02821 13.9201 8.48179 13.6808 8.81077 13.3085C9.13975 12.9362 9.3215 12.4566 9.32189 11.9598C9.32072 11.6568 9.25101 11.358 9.11797 11.0859H10.691C10.4889 11.4975 10.4349 11.9663 10.5384 12.4131C10.6046 12.7155 10.7388 12.9988 10.9308 13.2417C11.1228 13.4845 11.3675 13.6804 11.6465 13.8146C11.9255 13.9488 12.2314 14.0177 12.5409 14.0161C12.8505 14.0145 13.1556 13.9424 13.4332 13.8054C13.7108 13.6683 13.9535 13.4699 14.143 13.2251C14.3324 12.9803 14.4637 12.6955 14.5268 12.3924C14.5898 12.0894 14.5831 11.7759 14.507 11.4759C14.4309 11.1758 14.2875 10.897 14.0877 10.6605C14.4501 10.4401 14.7596 10.1426 14.9942 9.78921C15.2288 9.4358 15.3827 9.03512 15.4452 8.61556L15.5879 7.67754C15.6005 7.59477 15.5951 7.51026 15.572 7.42978C15.549 7.3493 15.5089 7.27472 15.4544 7.21114C15.3999 7.14756 15.3324 7.09646 15.2564 7.06132C15.1804 7.02619 15.0978 7.00784 15.0141 7.00753ZM7.28272 12.8337C7.10988 12.8337 6.94091 12.7825 6.7972 12.6864C6.65348 12.5904 6.54147 12.4539 6.47532 12.2942C6.40917 12.1345 6.39187 11.9588 6.42559 11.7893C6.45931 11.6198 6.54254 11.464 6.66476 11.3418C6.78698 11.2196 6.9427 11.1364 7.11223 11.1026C7.28175 11.0689 7.45747 11.0862 7.61716 11.1524C7.77685 11.2185 7.91334 11.3305 8.00937 11.4743C8.1054 11.618 8.15665 11.7869 8.15665 11.9598C8.15665 12.1916 8.06458 12.4138 7.90068 12.5777C7.73679 12.7416 7.5145 12.8337 7.28272 12.8337ZM12.5263 12.8337C12.3534 12.8337 12.1845 12.7825 12.0408 12.6864C11.897 12.5904 11.785 12.4539 11.7189 12.2942C11.6527 12.1345 11.6354 11.9588 11.6691 11.7893C11.7029 11.6198 11.7861 11.464 11.9083 11.3418C12.0305 11.2196 12.1863 11.1364 12.3558 11.1026C12.5253 11.0689 12.701 11.0862 12.8607 11.1524C13.0204 11.2185 13.1569 11.3305 13.2529 11.4743C13.349 11.618 13.4002 11.7869 13.4002 11.9598C13.4002 12.1916 13.3081 12.4138 13.1442 12.5777C12.9804 12.7416 12.7581 12.8337 12.5263 12.8337Z" fill="white"/>
</svg>
